<svg width="500" height="310" viewBox="0 0 500 310"
     xmlns="http://www.w3.org/2000/svg" font-family="'Segoe UI',Arial,sans-serif">

  <rect width="500" height="310" rx="12" fill="#0d1117"/>
  <rect x="1" y="1" width="498" height="308" rx="12"
        fill="none" stroke="#F5A623" stroke-width="1.5"/>

  <!-- título -->
  <text x="20" y="38" font-size="16" font-weight="700" fill="#F5A623">📊 GitHub Stats</text>
  <text x="480" y="38" font-size="11" fill="#555" text-anchor="end">
    24/07/2026 18:28 UTC
  </text>

  <!-- divisor -->
  <line x1="20" y1="50" x2="480" y2="50" stroke="#1e1e1e" stroke-width="1"/>

  <!-- métricas -->
  <text x="20"  y="90" font-size="22" font-weight="700" fill="#fff">16</text>
  <text x="20"  y="108" font-size="11" fill="#888">Public Repos</text>

  <text x="160" y="90" font-size="22" font-weight="700" fill="#fff">1</text>
  <text x="160" y="108" font-size="11" fill="#888">Total Stars</text>

  <text x="300" y="90" font-size="22" font-weight="700" fill="#fff">4</text>
  <text x="300" y="108" font-size="11" fill="#888">Followers</text>

  <!-- divisor -->
  <line x1="20" y1="130" x2="480" y2="130" stroke="#1e1e1e" stroke-width="1"/>

  <!-- linguagens -->
  <text x="20" y="158" font-size="13" font-weight="600" fill="#F5A623">Top Languages</text>

  <!-- barra de linguagens -->
  <rect x="20" y="168" width="460" height="12" rx="3" fill="#1e1e1e"/>
  <rect x="20" y="200" width="299" height="12" rx="3" fill="#4F5D95"/><rect x="319" y="200" width="78" height="12" rx="3" fill="#f1e05a"/><rect x="397" y="200" width="52" height="12" rx="3" fill="#DA5B0B"/><rect x="449" y="200" width="16" height="12" rx="3" fill="#3178c6"/><rect x="465" y="200" width="16" height="12" rx="3" fill="#563d7c"/>

  <!-- legenda -->
  <circle cx="26" cy="228" r="5" fill="#4F5D95"/><text x="36" y="232" font-size="12" fill="#ccc">PHP 62.9%</text><circle cx="181" cy="228" r="5" fill="#f1e05a"/><text x="191" y="232" font-size="12" fill="#ccc">JavaScript 16.3%</text><circle cx="336" cy="228" r="5" fill="#DA5B0B"/><text x="346" y="232" font-size="12" fill="#ccc">Jupyter Notebook 10.9%</text><circle cx="26" cy="250" r="5" fill="#3178c6"/><text x="36" y="254" font-size="12" fill="#ccc">TypeScript 3.3%</text><circle cx="181" cy="250" r="5" fill="#563d7c"/><text x="191" y="254" font-size="12" fill="#ccc">CSS 3.3%</text>

</svg>